<svg width="0" height="0" class="hidden">
  <symbol xmlns="http://www.w3.org/2000/svg" viewBox="0 0 56 48" id="ant-design_mail-twotone">
    <path d="M26.113 25.139L7.432 12.689l-1.504-1.003 1.51 1.008v24.431h41.124V12.694L29.87 25.139a3.402 3.402 0 01-1.878.552c-.68 0-1.342-.194-1.879-.552zm21.81-15.82l2.149 2.367-1.51 1.008 1.515-1.008-2.149-2.367h-.005z" fill-opacity=".15"></path>
    <path d="M50.75 7.5H5.25c-.968 0-1.75.67-1.75 1.5v30c0 .83.782 1.5 1.75 1.5h45.5c.968 0 1.75-.67 1.75-1.5V9c0-.83-.782-1.5-1.75-1.5zm-5.168 3.38L28 22.594 10.418 10.88h35.164zm2.98 1.814v24.431H7.438V12.694l-1.51-1.008 1.504 1.003 18.681 12.45a3.403 3.403 0 001.879.552 3.4 3.4 0 001.878-.552l18.692-12.445 1.51-1.008-2.15-2.367h.006l2.15 2.367-1.516 1.008z"></path>
  </symbol>
  <symbol xmlns="http://www.w3.org/2000/svg" viewBox="-4 0 48 34" id="eva_phone-call-outline">
    <path d="M20.497 12a4.5 4.5 0 014.5 4.5 1.5 1.5 0 103 0 7.5 7.5 0 00-7.5-7.5 1.5 1.5 0 100 3z"></path>
    <path d="M20.497 6a10.5 10.5 0 0110.5 10.5 1.5 1.5 0 103 0A13.5 13.5 0 0020.497 3a1.5 1.5 0 100 3zm13.125 17.865a1.5 1.5 0 00-1.08-.975l-9-2.055a1.5 1.5 0 00-1.38.39c-.21.195-.225.21-1.2 2.07a14.865 14.865 0 01-7.305-7.335c1.905-.96 1.92-.96 2.115-1.185a1.501 1.501 0 00.39-1.38L14.107 4.5a1.5 1.5 0 00-.975-1.08 5.686 5.686 0 00-1.08-.27A5.91 5.91 0 0010.897 3a6.9 6.9 0 00-6.9 6.9 23.13 23.13 0 0023.1 23.1 6.901 6.901 0 006.9-6.9c0-.382-.03-.763-.09-1.14a6.514 6.514 0 00-.285-1.095zM27.097 30a20.115 20.115 0 01-20.1-20.1 3.915 3.915 0 013.9-3.9h.495l1.605 6.96-.81.42c-1.29.675-2.31 1.215-1.77 2.385a17.773 17.773 0 0010.77 10.815c1.26.51 1.755-.435 2.43-1.74l.435-.825 6.945 1.59v.495a3.915 3.915 0 01-3.9 3.9z"></path>
  </symbol>
  <symbol fill="none" xmlns="http://www.w3.org/2000/svg" viewBox="0 0 56 48" id="fa-solid_people-carry">
    <path d="M14.934 12c1.803 0 3.266-1.543 3.266-3.446 0-1.903-1.463-3.447-3.266-3.447s-3.267 1.544-3.267 3.447S13.13 12 14.934 12zm26.132 0c1.803 0 3.267-1.543 3.267-3.446 0-1.903-1.464-3.447-3.267-3.447s-3.267 1.544-3.267 3.447S39.264 12 41.067 12zm8.554 26.72l-2.994-7.898-2.797 3.332-.136 1.306 1.885 4.97c.34.897 1.157 1.443 2.021 1.443.272 0 .544-.05.81-.165 1.116-.474 1.66-1.81 1.211-2.987v0zm-2.327-15.065l-1.26-5.759c-.312-1.436-1.265-2.643-2.551-3.224a4.006 4.006 0 00-3.818.237c-1.545.962-2.702 2.477-3.273 4.265l-.77 2.434-1.088.733v-6.894c0-.632-.49-1.149-1.089-1.149H22.556c-.6 0-1.09.517-1.09 1.15v6.893l-1.095-.733-.769-2.434a7.736 7.736 0 00-3.273-4.265 4.008 4.008 0 00-3.818-.237c-1.286.582-2.239 1.788-2.552 3.224l-1.252 5.76c-.313 1.435.048 2.958.98 4.07l4.573 5.45.688 6.65c.122 1.17 1.061 2.047 2.164 2.047.081 0 .156-.007.238-.014 1.197-.137 2.055-1.272 1.926-2.535l-.688-6.664a4.714 4.714 0 00-1.061-2.513l-2.947-3.519 1.198-5.048.463 1.465c.279.897.81 1.68 1.667 2.34l3.477 2.334c.313.209.824.33 1.17.36h10.89c.346-.03.857-.151 1.17-.36l3.477-2.333c.858-.661 1.388-1.436 1.667-2.341l.463-1.465 1.198 5.048-2.947 3.519c-.592.71-.96 1.58-1.061 2.513l-.688 6.664c-.129 1.264.735 2.398 1.926 2.535.082.007.157.014.238.014 1.096 0 2.042-.869 2.164-2.047l.688-6.65 4.573-5.45a4.808 4.808 0 00.98-4.07zM9.374 30.822L6.38 38.72c-.45 1.177.095 2.513 1.211 2.987 1.143.474 2.389-.122 2.831-1.279l1.885-4.969-.136-1.306-2.797-3.332v0z" stroke="#F05454" stroke-width="3"></path>
  </symbol>
  <symbol fill="none" xmlns="http://www.w3.org/2000/svg" viewBox="0 0 42 36" id="fb-logo">
    <path d="M42 18.045C42 8.085 32.592 0 21 0S0 8.084 0 18.045C0 26.78 7.224 34.051 16.8 35.73V23.46h-4.2v-5.414h4.2v-4.511c0-3.483 3.297-6.316 7.35-6.316h5.25v5.414h-4.2c-1.155 0-2.1.812-2.1 1.804v3.61h6.3v5.413h-6.3V36C33.705 35.098 42 27.41 42 18.045z" fill="#E8E8E8"></path>
  </symbol>
  <symbol fill="none" xmlns="http://www.w3.org/2000/svg" viewBox="0 0 56 48" id="ic_baseline-alarm-on">
    <path d="M28 6C16.403 6 7 14.06 7 24s9.38 18 21 18c5.57 0 10.911-1.896 14.85-5.272C46.787 33.353 49 28.774 49 24c0-4.773-2.212-9.352-6.15-12.727C38.91 7.897 33.57 6 28 6zm0 32c-9.03 0-16.333-6.26-16.333-14S18.97 10 28 10c9.03 0 16.333 6.26 16.333 14S37.03 38 28 38zm-3.407-10.94l-4.97-4.26-2.473 2.12 7.42 6.36 14-12-2.473-2.12-11.504 9.9z" fill="#F05454"></path>
  </symbol>
  <symbol fill="none" xmlns="http://www.w3.org/2000/svg" viewBox="0 0 56 48" id="ic_outline-airport-shuttle">
    <path d="M27.978 5.107c-12.021 0-21.756 8.235-21.756 18.383 0 10.147 9.735 18.383 21.756 18.383 12.043 0 21.8-8.236 21.8-18.383 0-10.147-9.757-18.383-21.8-18.383zM28 38.197c-9.626 0-17.422-6.582-17.422-14.707S18.374 8.784 28 8.784c9.626 0 17.422 6.58 17.422 14.706 0 8.125-7.796 14.706-17.422 14.706zm7.622-16.545c1.808 0 3.267-1.232 3.267-2.758s-1.46-2.757-3.267-2.757-3.267 1.231-3.267 2.757 1.46 2.758 3.267 2.758zm-15.244 0c1.807 0 3.266-1.232 3.266-2.758s-1.459-2.757-3.266-2.757c-1.808 0-3.267 1.231-3.267 2.757s1.46 2.758 3.267 2.758zM28 33.6c5.074 0 9.386-2.684 11.128-6.434H16.872C18.614 30.916 22.925 33.6 28 33.6z" fill="#F05454"></path>
  </symbol>
  <symbol fill="none" xmlns="http://www.w3.org/2000/svg" viewBox="0 0 56 48" width ="48" height="46" id="ic_outline-archive">
    <path d="M47.927 10.46L44.683 7.1C44.053 6.42 43.097 6 42 6H14c-1.097 0-2.053.42-2.707 1.1l-3.22 3.36C7.397 11.14 7 12.04 7 13v25c0 2.2 2.1 4 4.667 4h32.666C46.9 42 49 40.2 49 38V13c0-.96-.397-1.86-1.073-2.54zM14.56 10h26.88l1.89 1.94H12.693L14.56 10zm-2.893 28V16h32.666v22H11.667zm19.716-18h-6.766v6h-5.95L28 34l9.333-8h-5.95v-6z" fill="#F05454"></path>
  </symbol>
  <symbol fill="none" xmlns="http://www.w3.org/2000/svg" viewBox="0 0 56 48" id="ic_outline-clean-hands">
    <path d="M49.144 34.025v2.087l-16 5.217-14-4.048v3.005h-12V17.329h15.94l12.32 4.8a5.823 5.823 0 012.712 2.21 6.214 6.214 0 011.028 3.425h4c3.32 0 6 2.797 6 6.26zm-34 2.087V21.503h-4v14.609h4zm29.8-2.985c-.32-.688-1.02-1.168-1.8-1.168h-10.7a9.59 9.59 0 01-3.16-.543l-4.76-1.649 1.26-3.965 4.76 1.649c.62.209 4.6.313 4.6.313 0-.772-.46-1.46-1.14-1.732l-11.64-4.529h-3.22V32.94l13.94 4.028 11.86-3.84z" fill="#F05454"></path>
    <path d="M43.532 27.76v-20h-21v9.695" stroke="#F05454" stroke-width="2.5"></path>
  </symbol>
  <symbol fill="none" xmlns="http://www.w3.org/2000/svg" viewBox="0 0 56 47" id="icon-park-outline_transporter">
    <path d="M39.61 5H8.166c-1.191 0-2.334.542-3.176 1.507-.842.964-1.316 2.272-1.316 3.636v23.143h4.492c0 4.269 3.01 7.715 6.738 7.715 3.729 0 6.738-3.446 6.738-7.715h13.476c0 4.269 3.01 7.715 6.738 7.715 3.728 0 6.738-3.446 6.738-7.715h4.492V20.43L39.61 5zm-4.492 5.143h2.246l6.738 7.715h-8.984v-7.715zm-13.476 0h8.984v7.715h-8.984v-7.715zm-13.476 0h8.984v7.715H8.166v-7.715zm6.738 26.358c-.744 0-1.458-.34-1.985-.942-.526-.603-.822-1.42-.822-2.273 0-.852.296-1.67.822-2.273.527-.602 1.24-.941 1.985-.941.745 0 1.459.339 1.986.941.526.603.822 1.42.822 2.273 0 .853-.296 1.67-.822 2.273-.527.603-1.241.942-1.986.942zm26.952 0c-.745 0-1.459-.34-1.985-.942-.527-.603-.822-1.42-.822-2.273 0-.852.295-1.67.822-2.273.526-.602 1.24-.941 1.985-.941.745 0 1.459.339 1.985.941.527.603.823 1.42.823 2.273 0 .853-.296 1.67-.823 2.273-.526.603-1.24.942-1.985.942zm6.738-8.358h-1.752c-1.235-1.568-3.01-2.571-4.986-2.571s-3.75 1.003-4.986 2.571H19.89c-1.235-1.568-2.987-2.571-4.986-2.571-1.999 0-3.75 1.003-4.986 2.571H8.166V23h40.428v5.143z" fill="#F05454"></path>
  </symbol>
  <symbol fill="none" xmlns="http://www.w3.org/2000/svg" viewBox="0 0 56 51" id="uim_box">
    <g filter="url(#filter0_d)" fill="#F05454">
      <path opacity=".25" d="M47.203 14.48L28 24 8.797 14.48a4.337 4.337 0 011.633-1.42l15.237-7.54c1.446-.7 3.22-.7 4.666 0l15.237 7.54a4.346 4.346 0 011.633 1.42z"></path>
      <path opacity=".5" d="M28 24v19a5.557 5.557 0 01-2.123-.42L10.5 34.96a4.4 4.4 0 01-1.706-1.463 3.578 3.578 0 01-.627-1.997v-15c.004-.709.22-1.404.63-2.02L28 24z"></path>
      <path d="M47.833 16.5v15a3.577 3.577 0 01-.627 1.997A4.401 4.401 0 0145.5 34.96L30.053 42.6A5.57 5.57 0 0128 43V24l19.203-9.52c.409.616.626 1.312.63 2.02z"></path>
    </g>
    <defs>
      <filter id="filter0_d" x="-4" y="0" width="64" height="56" filterUnits="userSpaceOnUse" color-interpolation-filters="sRGB">
        <feFlood flood-opacity="0" result="BackgroundImageFix"></feFlood>
        <feColorMatrix in="SourceAlpha" values="0 0 0 0 0 0 0 0 0 0 0 0 0 0 0 0 0 0 127 0" result="hardAlpha"></feColorMatrix>
        <feOffset dy="4"></feOffset>
        <feGaussianBlur stdDeviation="2"></feGaussianBlur>
        <feComposite in2="hardAlpha" operator="out"></feComposite>
        <feColorMatrix values="0 0 0 0 0 0 0 0 0 0 0 0 0 0 0 0 0 0 0.25 0"></feColorMatrix>
        <feBlend in2="BackgroundImageFix" result="effect1_dropShadow"></feBlend>
        <feBlend in="SourceGraphic" in2="effect1_dropShadow" result="shape"></feBlend>
      </filter>
    </defs>
  </symbol>
  <symbol fill="none" xmlns="http://www.w3.org/2000/svg" viewBox="0 0 40 44" id="uim_comment-alt-dots">
    <path opacity=".5" d="M31.667 4.33H8.333c-1.325.002-2.596.567-3.534 1.571C3.862 6.906 3.335 8.27 3.333 9.69v17.865c.002 1.422.529 2.784 1.466 3.789.938 1.005 2.209 1.57 3.534 1.571h19.31l6.179 6.623c.233.25.53.42.853.489.323.069.658.033.963-.102.304-.135.564-.364.748-.658a1.88 1.88 0 00.28-.992V9.69c0-1.421-.528-2.784-1.465-3.789-.938-1.004-2.209-1.57-3.534-1.57zM13.333 20.41a1.59 1.59 0 01-.926-.302 1.765 1.765 0 01-.614-.802 1.906 1.906 0 01-.094-1.032 1.83 1.83 0 01.456-.915c.233-.25.53-.42.853-.489.323-.069.659-.033.963.102.305.135.565.364.748.658.183.294.28.64.28.993 0 .473-.175.928-.487 1.263a1.612 1.612 0 01-1.179.523zm6.667 0a1.59 1.59 0 01-.926-.302 1.766 1.766 0 01-.614-.802 1.907 1.907 0 01-.095-1.032 1.83 1.83 0 01.456-.915c.233-.25.53-.42.854-.489.323-.069.658-.033.963.102.304.135.565.364.748.658.183.294.28.64.28.993 0 .473-.175.928-.488 1.263a1.612 1.612 0 01-1.178.523zm6.667 0a1.59 1.59 0 01-.926-.302 1.766 1.766 0 01-.614-.802 1.906 1.906 0 01-.095-1.032 1.83 1.83 0 01.456-.915c.233-.25.53-.42.853-.489.324-.069.659-.033.963.102.305.135.565.364.748.658.183.294.281.64.281.993 0 .473-.175.928-.488 1.263a1.612 1.612 0 01-1.178.523z" fill="#F05454"></path>
    <path d="M13.333 20.41c.92 0 1.667-.8 1.667-1.788 0-.986-.746-1.786-1.667-1.786-.92 0-1.666.8-1.666 1.787 0 .986.746 1.786 1.666 1.786zm6.667 0c.92 0 1.667-.8 1.667-1.788 0-.986-.747-1.786-1.667-1.786s-1.667.8-1.667 1.787c0 .986.746 1.786 1.667 1.786zm6.667 0c.92 0 1.666-.8 1.666-1.788 0-.986-.746-1.786-1.666-1.786-.92 0-1.667.8-1.667 1.787 0 .986.746 1.786 1.667 1.786z" fill="#222831"></path>
  </symbol>
    <symbol fill="none" xmlns="http://www.w3.org/2000/svg" viewBox="0 0 40 44" id="modal__close">
    <path d="M11.6667 32.6417C11.3371 32.6416 11.0149 32.5361 10.7409 32.3384C10.4669 32.1408 10.2533 31.8599 10.1272 31.5313C10.0011 31.2027 9.96809 30.8412 10.0324 30.4923C10.0967 30.1435 10.2553 29.8231 10.4883 29.5715L27.155 11.5859C27.4693 11.2583 27.8904 11.077 28.3273 11.0811C28.7643 11.0852 29.1824 11.2744 29.4914 11.6078C29.8004 11.9413 29.9757 12.3924 29.9795 12.864C29.9833 13.3356 29.8153 13.7899 29.5117 14.1291L12.845 32.1147C12.6904 32.2819 12.5068 32.4146 12.3046 32.505C12.1024 32.5955 11.8856 32.6419 11.6667 32.6417V32.6417Z" fill="#F05454"></path>
    <path d="M28.3334 32.6417C28.1145 32.6419 27.8977 32.5955 27.6955 32.505C27.4933 32.4146 27.3096 32.282 27.155 32.1147L10.4884 14.1291C10.1848 13.7899 10.0168 13.3356 10.0206 12.864C10.0244 12.3924 10.1997 11.9413 10.5087 11.6078C10.8177 11.2744 11.2357 11.0852 11.6727 11.0811C12.1097 11.077 12.5307 11.2583 12.845 11.5859L29.5117 29.5715C29.7447 29.8231 29.9034 30.1435 29.9677 30.4923C30.0319 30.8412 29.9989 31.2027 29.8728 31.5313C29.7467 31.8599 29.5331 32.1408 29.2591 32.3384C28.9851 32.5361 28.6629 32.6416 28.3334 32.6417Z" fill="#F05454"></path>
  </symbol>
</svg>